<?xml version="1.0" encoding="UTF-8"?>
<svg id="Layer_1" xmlns="http://www.w3.org/2000/svg" version="1.1" viewBox="0 0 1080 1080">
  <!-- Generator: Adobe Illustrator 29.6.1, SVG Export Plug-In . SVG Version: 2.1.1 Build 9)  -->
  <defs>
    <style>
      .st0 {
        fill: #a89f79;
      }

      .st1 {
        fill: #fff;
      }
    </style>
  </defs>
  <path class="st1" d="M181.4,790.8h-94.3l86.7-198.7c23.1-52.9,75.3-87.1,133.1-87.1h0l-125.5,285.8Z"/>
  <path class="st0" d="M275.3,790.8h-94.3l145.5-331.3c23.1-52.6,75.2-86.6,132.6-86.6h0l-183.8,417.9Z"/>
  <path class="st1" d="M854.8,696.6h-256.4l-40,94.3h-94.3l220.2-500.7h86.7l221,500.7h-97.3l-40-94.3ZM725.9,392.7l-94.3,224.7h190l-94.3-224.7h-1.5Z"/>
  <path class="st1" d="M369.6,790.8h-94.3l182.3-414.4c23.1-52.4,74.9-86.3,132.2-86.3h0l-220.2,500.7Z"/>
</svg>