<?xml version="1.0" encoding="UTF-8"?>
<svg id="Layer_1" xmlns="http://www.w3.org/2000/svg" version="1.1" viewBox="0 0 547.1 172.9">
  <!-- Generator: Adobe Illustrator 29.6.1, SVG Export Plug-In . SVG Version: 2.1.1 Build 9)  -->
  <defs>
    <style>
      .st0 {
        fill: #fff;
      }

      .st1 {
        fill: #d6ca98;
      }
    </style>
  </defs>
  <path class="st0" d="M64.7,121.4h-13.1l12-27.5c3.2-7.3,10.4-12.1,18.4-12.1h0l-17.4,39.6Z"/>
  <path class="st1" d="M77.7,121.4h-13.1l20.2-45.9c3.2-7.3,10.4-12,18.4-12h0l-25.5,57.9Z"/>
  <path class="st0" d="M158,108.4h-35.5l-5.5,13.1h-13.1l30.5-69.4h12l30.6,69.4h-13.5l-5.5-13.1ZM140.1,66.3l-13.1,31.1h26.3l-13.1-31.1h-.2Z"/>
  <path class="st0" d="M218.4,121.4l-.3-7h-.2c-3.6,5-9.7,8-17.7,8-14,0-24.2-10.7-24.2-25.5s10.2-25.6,24.2-25.6,12.4,2.3,16.1,6.2h.2v-25.5s11.1,0,11.1,0v69.4h-9.2ZM216.8,97c0-9.3-6.1-15.7-14.8-15.7s-14.8,6.4-14.8,15.7,6.1,15.6,14.8,15.6,14.8-6.5,14.8-15.6Z"/>
  <path class="st0" d="M274.8,121.4l-.3-7h-.2c-3.6,5-9.7,8-17.7,8-14,0-24.2-10.7-24.2-25.5s10.2-25.6,24.2-25.6,14,3,17.6,8h.2l.4-7h9.2v49h-9.2ZM273.3,97c0-9.3-6.1-15.7-14.8-15.7s-14.8,6.4-14.8,15.7,6.1,15.6,14.8,15.6,14.8-6.5,14.8-15.6Z"/>
  <path class="st0" d="M342.5,97c0,14.8-10.2,25.5-24.2,25.5s-12.5-2.3-16.2-6.3h-.2v25.1h-11.1s0-68.9,0-68.9h9.3l.3,7h.2c3.6-5,9.6-8,17.7-8,14,0,24.2,10.8,24.2,25.6ZM331.3,97c0-9.3-6.2-15.7-14.8-15.7s-14.9,6.4-14.9,15.7,6.2,15.6,14.9,15.6,14.8-6.5,14.8-15.6Z"/>
  <path class="st0" d="M376.9,120.7c-2.3,1.1-5.3,1.8-9.2,1.8-11.1,0-17-6.3-17-17.9v-22.6h-8.7v-9.6h9l1.6-13.5h9.2v13.5h14.9v9.6h-14.9v22.2c0,5.3,2.8,8.5,7.6,8.5s5-.7,7-2.9h.5v11Z"/>
  <path class="st0" d="M393.9,72.4v49h-11.1v-37.9c0-6.1,5-11.1,11.1-11.1h0Z"/>
  <path class="st0" d="M416.9,121.4l-19.9-49h11.9l13.7,37h.2l13.8-37h11.4l-19.9,49h-11.3Z"/>
  <path class="st0" d="M457.6,100.3c1.4,7.8,8,12.4,17.8,12.4s13.3-2.2,17.7-6.4h.5v11c-4.2,3.2-10.9,5.1-18.6,5.1-17.1,0-28.6-10.2-28.6-25.5s10.6-25.6,25.5-25.6,24.8,9.2,24.8,23.5v5.4h-39ZM457.6,92.1h28.7c-.9-6.7-6.6-11-14.2-11s-13.2,4.4-14.5,11Z"/>
  <path class="st0" d="M90.8,121.4h-13.1l25.3-57.4c3.2-7.3,10.4-12,18.3-12h0l-30.5,69.4Z"/>
</svg>